{"accessors":[{"bufferView":0,"componentType":5126,"count":1992,"min":[42.210330963134769,0.0,-397.58721923828127],"max":[653.4899291992188,14.0600004196167,-57.63570022583008],"type":"VEC3","name":"part000_vertices#0_POSITION"},{"bufferView":0,"byteOffset":12,"componentType":5120,"count":1992,"type":"VEC4","name":"part000_vertices#0_TANGENT"},{"bufferView":0,"byteOffset":16,"componentType":5120,"count":1992,"type":"VEC4","name":"part000_vertices#0_NORMAL"},{"bufferView":0,"byteOffset":20,"componentType":5122,"count":1992,"type":"VEC2","name":"part000_vertices#0_TEXCOORD_0"},{"bufferView":0,"byteOffset":24,"componentType":5122,"count":1992,"type":"VEC2","name":"part000_vertices#0_TEXCOORD_1"},{"bufferView":0,"byteOffset":28,"componentType":5123,"count":1992,"type":"VEC4","name":"part000_vertices#0_COLOR_0"},{"bufferView":1,"componentType":5123,"count":3264,"type":"SCALAR","name":"part000_indices#0"},{"bufferView":0,"byteOffset":71712,"componentType":5126,"count":492,"min":[42.210330963134769,0.0,-397.58721923828127],"max":[647.2674560546875,14.0600004196167,-121.6778335571289],"type":"VEC3","name":"part001_vertices#0_POSITION"},{"bufferView":0,"byteOffset":71724,"componentType":5120,"count":492,"type":"VEC4","name":"part001_vertices#0_TANGENT"},{"bufferView":0,"byteOffset":71728,"componentType":5120,"count":492,"type":"VEC4","name":"part001_vertices#0_NORMAL"},{"bufferView":0,"byteOffset":71732,"componentType":5122,"count":492,"type":"VEC2","name":"part001_vertices#0_TEXCOORD_0"},{"bufferView":0,"byteOffset":71736,"componentType":5122,"count":492,"type":"VEC2","name":"part001_vertices#0_TEXCOORD_1"},{"bufferView":0,"byteOffset":71740,"componentType":5123,"count":492,"type":"VEC4","name":"part001_vertices#0_COLOR_0"},{"bufferView":1,"byteOffset":6528,"componentType":5123,"count":888,"type":"SCALAR","name":"part001_indices#0"},{"bufferView":0,"byteOffset":89424,"componentType":5126,"count":32,"min":[268.65350341796877,0.0,-100.92569732666016],"max":[523.2433471679688,4.260000228881836,-57.63570022583008],"type":"VEC3","name":"part002_vertices#0_POSITION"},{"bufferView":0,"byteOffset":89436,"componentType":5120,"count":32,"type":"VEC4","name":"part002_vertices#0_TANGENT"},{"bufferView":0,"byteOffset":89440,"componentType":5120,"count":32,"type":"VEC4","name":"part002_vertices#0_NORMAL"},{"bufferView":0,"byteOffset":89444,"componentType":5122,"count":32,"type":"VEC2","name":"part002_vertices#0_TEXCOORD_0"},{"bufferView":0,"byteOffset":89448,"componentType":5122,"count":32,"type":"VEC2","name":"part002_vertices#0_TEXCOORD_1"},{"bufferView":0,"byteOffset":89452,"componentType":5123,"count":32,"type":"VEC4","name":"part002_vertices#0_COLOR_0"},{"bufferView":1,"byteOffset":8304,"componentType":5123,"count":48,"type":"SCALAR","name":"part002_indices#0"},{"bufferView":0,"byteOffset":90576,"componentType":5126,"count":16,"min":[229.45164489746095,0.0,-392.277099609375],"max":[653.4899291992188,4.114999771118164,-47.5],"type":"VEC3","name":"part003_vertices#0_POSITION"},{"bufferView":0,"byteOffset":90588,"componentType":5120,"count":16,"type":"VEC4","name":"part003_vertices#0_TANGENT"},{"bufferView":0,"byteOffset":90592,"componentType":5120,"count":16,"type":"VEC4","name":"part003_vertices#0_NORMAL"},{"bufferView":0,"byteOffset":90596,"componentType":5122,"count":16,"type":"VEC2","name":"part003_vertices#0_TEXCOORD_0"},{"bufferView":0,"byteOffset":90600,"componentType":5122,"count":16,"type":"VEC2","name":"part003_vertices#0_TEXCOORD_1"},{"bufferView":0,"byteOffset":90604,"componentType":5123,"count":16,"type":"VEC4","name":"part003_vertices#0_COLOR_0"},{"bufferView":1,"byteOffset":8400,"componentType":5123,"count":24,"type":"SCALAR","name":"part003_indices#0"},{"bufferView":0,"byteOffset":91152,"componentType":5126,"count":334,"min":[42.210330963134769,4.260000228881836,-397.58721923828127],"max":[647.2674560546875,14.0600004196167,-57.63570022583008],"type":"VEC3","name":"part004_vertices#0_POSITION"},{"bufferView":0,"byteOffset":91164,"componentType":5120,"count":334,"type":"VEC4","name":"part004_vertices#0_TANGENT"},{"bufferView":0,"byteOffset":91168,"componentType":5120,"count":334,"type":"VEC4","name":"part004_vertices#0_NORMAL"},{"bufferView":0,"byteOffset":91172,"componentType":5122,"count":334,"type":"VEC2","name":"part004_vertices#0_TEXCOORD_0"},{"bufferView":0,"byteOffset":91176,"componentType":5122,"count":334,"type":"VEC2","name":"part004_vertices#0_TEXCOORD_1"},{"bufferView":0,"byteOffset":91180,"componentType":5123,"count":334,"type":"VEC4","name":"part004_vertices#0_COLOR_0"},{"bufferView":1,"byteOffset":8448,"componentType":5123,"count":582,"type":"SCALAR","name":"part004_indices#0"},{"bufferView":0,"byteOffset":103176,"componentType":5126,"count":318,"min":[331.607421875,0.0,-305.8477478027344],"max":[629.1620483398438,4.114999771118164,-168.05783081054688],"type":"VEC3","name":"part005_vertices#0_POSITION"},{"bufferView":0,"byteOffset":103188,"componentType":5120,"count":318,"type":"VEC4","name":"part005_vertices#0_TANGENT"},{"bufferView":0,"byteOffset":103192,"componentType":5120,"count":318,"type":"VEC4","name":"part005_vertices#0_NORMAL"},{"bufferView":0,"byteOffset":103196,"componentType":5122,"count":318,"type":"VEC2","name":"part005_vertices#0_TEXCOORD_0"},{"bufferView":0,"byteOffset":103200,"componentType":5122,"count":318,"type":"VEC2","name":"part005_vertices#0_TEXCOORD_1"},{"bufferView":0,"byteOffset":103204,"componentType":5123,"count":318,"type":"VEC4","name":"part005_vertices#0_COLOR_0"},{"bufferView":1,"byteOffset":9612,"componentType":5123,"count":582,"type":"SCALAR","name":"part005_indices#0"},{"bufferView":0,"byteOffset":114624,"componentType":5126,"count":70,"min":[331.607421875,0.0,-305.8477478027344],"max":[653.4899291992188,4.114999771118164,-168.05783081054688],"type":"VEC3","name":"part006_vertices#0_POSITION"},{"bufferView":0,"byteOffset":114636,"componentType":5120,"count":70,"type":"VEC4","name":"part006_vertices#0_TANGENT"},{"bufferView":0,"byteOffset":114640,"componentType":5120,"count":70,"type":"VEC4","name":"part006_vertices#0_NORMAL"},{"bufferView":0,"byteOffset":114644,"componentType":5122,"count":70,"type":"VEC2","name":"part006_vertices#0_TEXCOORD_0"},{"bufferView":0,"byteOffset":114648,"componentType":5122,"count":70,"type":"VEC2","name":"part006_vertices#0_TEXCOORD_1"},{"bufferView":0,"byteOffset":114652,"componentType":5123,"count":70,"type":"VEC4","name":"part006_vertices#0_COLOR_0"},{"bufferView":1,"byteOffset":10776,"componentType":5123,"count":186,"type":"SCALAR","name":"part006_indices#0"},{"bufferView":0,"byteOffset":117144,"componentType":5126,"count":66,"min":[331.607421875,0.0,-305.8477478027344],"max":[629.1620483398438,4.114999771118164,-168.05783081054688],"type":"VEC3","name":"part007_vertices#0_POSITION"},{"bufferView":0,"byteOffset":117156,"componentType":5120,"count":66,"type":"VEC4","name":"part007_vertices#0_TANGENT"},{"bufferView":0,"byteOffset":117160,"componentType":5120,"count":66,"type":"VEC4","name":"part007_vertices#0_NORMAL"},{"bufferView":0,"byteOffset":117164,"componentType":5122,"count":66,"type":"VEC2","name":"part007_vertices#0_TEXCOORD_0"},{"bufferView":0,"byteOffset":117168,"componentType":5122,"count":66,"type":"VEC2","name":"part007_vertices#0_TEXCOORD_1"},{"bufferView":0,"byteOffset":117172,"componentType":5123,"count":66,"type":"VEC4","name":"part007_vertices#0_COLOR_0"},{"bufferView":1,"byteOffset":11148,"componentType":5123,"count":180,"type":"SCALAR","name":"part007_indices#0"}],"asset":{"generator":"ModelConverterX","version":"2.0","extensions":{"ASOBO_asset_optimized":{"BoundingBoxMax":[653.4899291992188,14.0600004196167,-47.5],"BoundingBoxMin":[42.210330963134769,0.0,-397.58721923828127],"MajorVersion":4,"MinorVersion":2}}},"bufferViews":[{"buffer":0,"byteLength":119520,"byteStride":36,"target":34962,"name":"BufferViewVertexND"},{"buffer":0,"byteLength":11508,"byteOffset":119520,"target":34963,"name":"BufferViewIndex"}],"extensionsUsed":["MSFT_texture_dds","ASOBO_asset_optimized"],"extensionsRequired":["MSFT_texture_dds"],"materials":[{"name":"glTF_Material","pbrMetallicRoughness":{"metallicFactor":0.0,"baseColorTexture":{"index":0}}},{"name":"glTF_Materialx","pbrMetallicRoughness":{"metallicFactor":0.0,"baseColorTexture":{"index":1}}},{"name":"glTF_Materialxx","pbrMetallicRoughness":{"metallicFactor":0.0,"baseColorTexture":{"index":2}}},{"name":"glTF_Materialxxx","alphaMode":"BLEND","pbrMetallicRoughness":{"metallicFactor":0.0,"baseColorTexture":{"index":3}}},{"name":"glTF_Materialxxxx","pbrMetallicRoughness":{"metallicFactor":0.0,"baseColorTexture":{"index":4}}},{"name":"glTF_Materialxxxxx","pbrMetallicRoughness":{"metallicFactor":0.0,"baseColorTexture":{"index":5}}},{"name":"glTF_Materialxxxxxx","pbrMetallicRoughness":{"metallicFactor":0.0,"baseColorTexture":{"index":6}}},{"name":"glTF_Materialxxxxxxx","alphaMode":"BLEND","pbrMetallicRoughness":{"metallicFactor":0.0,"baseColorTexture":{"index":7}}}],"meshes":[{"primitives":[{"attributes":{"COLOR_0":5,"NORMAL":2,"POSITION":0,"TANGENT":1,"TEXCOORD_0":3,"TEXCOORD_1":4},"indices":6,"material":2,"mode":4,"extras":{"ASOBO_primitive":{"PrimitiveCount":1088,"VertexType":"VTX","VertexVersion":2}}}],"name":"part000"},{"primitives":[{"attributes":{"COLOR_0":12,"NORMAL":9,"POSITION":7,"TANGENT":8,"TEXCOORD_0":10,"TEXCOORD_1":11},"indices":13,"material":5,"mode":4,"extras":{"ASOBO_primitive":{"PrimitiveCount":296,"VertexType":"VTX","VertexVersion":2}}}],"name":"part001"},{"primitives":[{"attributes":{"COLOR_0":19,"NORMAL":16,"POSITION":14,"TANGENT":15,"TEXCOORD_0":17,"TEXCOORD_1":18},"indices":20,"material":4,"mode":4,"extras":{"ASOBO_primitive":{"PrimitiveCount":16,"VertexType":"VTX","VertexVersion":2}}}],"name":"part002"},{"primitives":[{"attributes":{"COLOR_0":26,"NORMAL":23,"POSITION":21,"TANGENT":22,"TEXCOORD_0":24,"TEXCOORD_1":25},"indices":27,"material":3,"mode":4,"extras":{"ASOBO_primitive":{"PrimitiveCount":8,"VertexType":"VTX","VertexVersion":2}}}],"name":"part003"},{"primitives":[{"attributes":{"COLOR_0":33,"NORMAL":30,"POSITION":28,"TANGENT":29,"TEXCOORD_0":31,"TEXCOORD_1":32},"indices":34,"material":6,"mode":4,"extras":{"ASOBO_primitive":{"PrimitiveCount":194,"VertexType":"VTX","VertexVersion":2}}}],"name":"part004"},{"primitives":[{"attributes":{"COLOR_0":40,"NORMAL":37,"POSITION":35,"TANGENT":36,"TEXCOORD_0":38,"TEXCOORD_1":39},"indices":41,"material":7,"mode":4,"extras":{"ASOBO_primitive":{"PrimitiveCount":194,"VertexType":"VTX","VertexVersion":2}}}],"name":"part005"},{"primitives":[{"attributes":{"COLOR_0":47,"NORMAL":44,"POSITION":42,"TANGENT":43,"TEXCOORD_0":45,"TEXCOORD_1":46},"indices":48,"material":0,"mode":4,"extras":{"ASOBO_primitive":{"PrimitiveCount":62,"VertexType":"VTX","VertexVersion":2}}}],"name":"part006"},{"primitives":[{"attributes":{"COLOR_0":54,"NORMAL":51,"POSITION":49,"TANGENT":50,"TEXCOORD_0":52,"TEXCOORD_1":53},"indices":55,"material":1,"mode":4,"extras":{"ASOBO_primitive":{"PrimitiveCount":60,"VertexType":"VTX","VertexVersion":2}}}],"name":"part007"}],"nodes":[{"name":"node0","children":[1,2,3,4,5,6,7,8]},{"mesh":0,"name":"node1"},{"mesh":1,"name":"node2"},{"mesh":2,"name":"node3"},{"mesh":3,"name":"node4"},{"mesh":4,"name":"node5"},{"mesh":5,"name":"node6"},{"mesh":6,"name":"node7"},{"mesh":7,"name":"node8"}],"scene":0,"scenes":[{"nodes":[0]}],"textures":[{"extensions":{"MSFT_texture_dds":{"source":0}}},{"extensions":{"MSFT_texture_dds":{"source":1}}},{"extensions":{"MSFT_texture_dds":{"source":2}}},{"extensions":{"MSFT_texture_dds":{"source":3}}},{"extensions":{"MSFT_texture_dds":{"source":4}}},{"extensions":{"MSFT_texture_dds":{"source":5}}},{"extensions":{"MSFT_texture_dds":{"source":6}}},{"extensions":{"MSFT_texture_dds":{"source":7}}}],"buffers":[{"byteLength":131028,"uri":"ElnuevoDorado.bin"}],"images":[{"uri":"ASPHALT_NEW.PNG.DDS","extras":"ASOBO_image_converted_meta"},{"uri":"CONCRETE_FORM_4X8.PNG.DDS","extras":"ASOBO_image_converted_meta"},{"uri":"ELNUEVODORADO_0.PNG.DDS","extras":"ASOBO_image_converted_meta"},{"uri":"FENCING_METAL_STRAIGHT.PNG.DDS","extras":"ASOBO_image_converted_meta"},{"uri":"MATERIAL_2.PNG.DDS","extras":"ASOBO_image_converted_meta"},{"uri":"MATERIAL_28.PNG.DDS","extras":"ASOBO_image_converted_meta"},{"uri":"METAL_ROUGH.PNG.DDS","extras":"ASOBO_image_converted_meta"},{"uri":"SOSTENEDORES.PNG.DDS","extras":"ASOBO_image_converted_meta"}]}
