{
  "asset": {
    "version": "2.0",
    "generator": "ModelConverterX"
  },
  "scene": 0,
  "scenes": [
    {
      "nodes": [
        0
      ]
    }
  ],
  "nodes": [
    {
      "name": "node0",
      "children": [
        1,
        2,
        3,
        4,
        5,
        6,
        7,
        8
      ]
    },
    {
      "name": "node1",
      "mesh": 0
    },
    {
      "name": "node2",
      "mesh": 1
    },
    {
      "name": "node3",
      "mesh": 2
    },
    {
      "name": "node4",
      "mesh": 3
    },
    {
      "name": "node5",
      "mesh": 4
    },
    {
      "name": "node6",
      "mesh": 5
    },
    {
      "name": "node7",
      "mesh": 6
    },
    {
      "name": "node8",
      "mesh": 7
    }
  ],
  "meshes": [
    {
      "primitives": [
        {
          "attributes": {
            "POSITION": 0,
            "NORMAL": 1,
            "TEXCOORD_0": 2
          },
          "indices": 3,
          "mode": 4,
          "material": 2
        }
      ],
      "name": "part000"
    },
    {
      "primitives": [
        {
          "attributes": {
            "POSITION": 4,
            "NORMAL": 5,
            "TEXCOORD_0": 6
          },
          "indices": 7,
          "mode": 4,
          "material": 5
        }
      ],
      "name": "part001"
    },
    {
      "primitives": [
        {
          "attributes": {
            "POSITION": 8,
            "NORMAL": 9,
            "TEXCOORD_0": 10
          },
          "indices": 11,
          "mode": 4,
          "material": 4
        }
      ],
      "name": "part002"
    },
    {
      "primitives": [
        {
          "attributes": {
            "POSITION": 12,
            "NORMAL": 13,
            "TEXCOORD_0": 14
          },
          "indices": 15,
          "mode": 4,
          "material": 3
        }
      ],
      "name": "part003"
    },
    {
      "primitives": [
        {
          "attributes": {
            "POSITION": 16,
            "NORMAL": 17,
            "TEXCOORD_0": 18
          },
          "indices": 19,
          "mode": 4,
          "material": 6
        }
      ],
      "name": "part004"
    },
    {
      "primitives": [
        {
          "attributes": {
            "POSITION": 20,
            "NORMAL": 21,
            "TEXCOORD_0": 22
          },
          "indices": 23,
          "mode": 4,
          "material": 7
        }
      ],
      "name": "part005"
    },
    {
      "primitives": [
        {
          "attributes": {
            "POSITION": 24,
            "NORMAL": 25,
            "TEXCOORD_0": 26
          },
          "indices": 27,
          "mode": 4,
          "material": 0
        }
      ],
      "name": "part006"
    },
    {
      "primitives": [
        {
          "attributes": {
            "POSITION": 28,
            "NORMAL": 29,
            "TEXCOORD_0": 30
          },
          "indices": 31,
          "mode": 4,
          "material": 1
        }
      ],
      "name": "part007"
    }
  ],
  "accessors": [
    {
      "bufferView": 1,
      "byteOffset": 0,
      "componentType": 5126,
      "count": 1360,
      "type": "VEC3",
      "min": [
        42.210330963134766,
        0.0,
        -397.58721923828125
      ],
      "max": [
        653.48992919921875,
        14.0600004196167,
        -57.635700225830078
      ]
    },
    {
      "bufferView": 2,
      "byteOffset": 0,
      "componentType": 5126,
      "count": 1360,
      "type": "VEC3"
    },
    {
      "bufferView": 3,
      "byteOffset": 0,
      "componentType": 5126,
      "count": 1360,
      "type": "VEC2"
    },
    {
      "bufferView": 0,
      "byteOffset": 0,
      "componentType": 5125,
      "count": 3264,
      "type": "SCALAR"
    },
    {
      "bufferView": 1,
      "byteOffset": 16320,
      "componentType": 5126,
      "count": 492,
      "type": "VEC3",
      "min": [
        42.210330963134766,
        0.0,
        -397.58721923828125
      ],
      "max": [
        647.2674560546875,
        14.0600004196167,
        -121.67783355712891
      ]
    },
    {
      "bufferView": 2,
      "byteOffset": 16320,
      "componentType": 5126,
      "count": 492,
      "type": "VEC3"
    },
    {
      "bufferView": 3,
      "byteOffset": 10880,
      "componentType": 5126,
      "count": 492,
      "type": "VEC2"
    },
    {
      "bufferView": 0,
      "byteOffset": 13056,
      "componentType": 5125,
      "count": 888,
      "type": "SCALAR"
    },
    {
      "bufferView": 1,
      "byteOffset": 22224,
      "componentType": 5126,
      "count": 32,
      "type": "VEC3",
      "min": [
        268.65350341796875,
        0.0,
        -100.92569732666016
      ],
      "max": [
        523.24334716796875,
        4.2600002288818359,
        -57.635700225830078
      ]
    },
    {
      "bufferView": 2,
      "byteOffset": 22224,
      "componentType": 5126,
      "count": 32,
      "type": "VEC3"
    },
    {
      "bufferView": 3,
      "byteOffset": 14816,
      "componentType": 5126,
      "count": 32,
      "type": "VEC2"
    },
    {
      "bufferView": 0,
      "byteOffset": 16608,
      "componentType": 5125,
      "count": 48,
      "type": "SCALAR"
    },
    {
      "bufferView": 1,
      "byteOffset": 22608,
      "componentType": 5126,
      "count": 16,
      "type": "VEC3",
      "min": [
        229.45164489746094,
        0.0,
        -392.277099609375
      ],
      "max": [
        653.48992919921875,
        4.1149997711181641,
        -47.5
      ]
    },
    {
      "bufferView": 2,
      "byteOffset": 22608,
      "componentType": 5126,
      "count": 16,
      "type": "VEC3"
    },
    {
      "bufferView": 3,
      "byteOffset": 15072,
      "componentType": 5126,
      "count": 16,
      "type": "VEC2"
    },
    {
      "bufferView": 0,
      "byteOffset": 16800,
      "componentType": 5125,
      "count": 24,
      "type": "SCALAR"
    },
    {
      "bufferView": 1,
      "byteOffset": 22800,
      "componentType": 5126,
      "count": 334,
      "type": "VEC3",
      "min": [
        42.210330963134766,
        4.2600002288818359,
        -397.58721923828125
      ],
      "max": [
        647.2674560546875,
        14.0600004196167,
        -57.635700225830078
      ]
    },
    {
      "bufferView": 2,
      "byteOffset": 22800,
      "componentType": 5126,
      "count": 334,
      "type": "VEC3"
    },
    {
      "bufferView": 3,
      "byteOffset": 15200,
      "componentType": 5126,
      "count": 334,
      "type": "VEC2"
    },
    {
      "bufferView": 0,
      "byteOffset": 16896,
      "componentType": 5125,
      "count": 582,
      "type": "SCALAR"
    },
    {
      "bufferView": 1,
      "byteOffset": 26808,
      "componentType": 5126,
      "count": 318,
      "type": "VEC3",
      "min": [
        331.607421875,
        0.0,
        -305.84774780273438
      ],
      "max": [
        629.16204833984375,
        4.1149997711181641,
        -168.05783081054688
      ]
    },
    {
      "bufferView": 2,
      "byteOffset": 26808,
      "componentType": 5126,
      "count": 318,
      "type": "VEC3"
    },
    {
      "bufferView": 3,
      "byteOffset": 17872,
      "componentType": 5126,
      "count": 318,
      "type": "VEC2"
    },
    {
      "bufferView": 0,
      "byteOffset": 19224,
      "componentType": 5125,
      "count": 582,
      "type": "SCALAR"
    },
    {
      "bufferView": 1,
      "byteOffset": 30624,
      "componentType": 5126,
      "count": 70,
      "type": "VEC3",
      "min": [
        331.607421875,
        0.0,
        -305.84774780273438
      ],
      "max": [
        653.48992919921875,
        4.1149997711181641,
        -168.05783081054688
      ]
    },
    {
      "bufferView": 2,
      "byteOffset": 30624,
      "componentType": 5126,
      "count": 70,
      "type": "VEC3"
    },
    {
      "bufferView": 3,
      "byteOffset": 20416,
      "componentType": 5126,
      "count": 70,
      "type": "VEC2"
    },
    {
      "bufferView": 0,
      "byteOffset": 21552,
      "componentType": 5125,
      "count": 186,
      "type": "SCALAR"
    },
    {
      "bufferView": 1,
      "byteOffset": 31464,
      "componentType": 5126,
      "count": 66,
      "type": "VEC3",
      "min": [
        331.607421875,
        0.0,
        -305.84774780273438
      ],
      "max": [
        629.16204833984375,
        4.1149997711181641,
        -168.05783081054688
      ]
    },
    {
      "bufferView": 2,
      "byteOffset": 31464,
      "componentType": 5126,
      "count": 66,
      "type": "VEC3"
    },
    {
      "bufferView": 3,
      "byteOffset": 20976,
      "componentType": 5126,
      "count": 66,
      "type": "VEC2"
    },
    {
      "bufferView": 0,
      "byteOffset": 22296,
      "componentType": 5125,
      "count": 180,
      "type": "SCALAR"
    }
  ],
  "materials": [
    {
      "pbrMetallicRoughness": {
        "baseColorFactor": [
          1.0,
          1.0,
          1.0,
          1.0
        ],
        "roughnessFactor": 1.0,
        "metallicFactor": 0.0,
        "baseColorTexture": {
          "index": 0
        }
      },
      "emissiveFactor": [
        0.0,
        0.0,
        0.0
      ]
    },
    {
      "pbrMetallicRoughness": {
        "baseColorFactor": [
          1.0,
          1.0,
          1.0,
          1.0
        ],
        "roughnessFactor": 1.0,
        "metallicFactor": 0.0,
        "baseColorTexture": {
          "index": 1
        }
      },
      "emissiveFactor": [
        0.0,
        0.0,
        0.0
      ]
    },
    {
      "pbrMetallicRoughness": {
        "baseColorFactor": [
          1.0,
          1.0,
          1.0,
          1.0
        ],
        "roughnessFactor": 1.0,
        "metallicFactor": 0.0,
        "baseColorTexture": {
          "index": 2
        }
      },
      "emissiveFactor": [
        0.0,
        0.0,
        0.0
      ]
    },
    {
      "pbrMetallicRoughness": {
        "baseColorFactor": [
          1.0,
          1.0,
          1.0,
          1.0
        ],
        "roughnessFactor": 1.0,
        "metallicFactor": 0.0,
        "baseColorTexture": {
          "index": 3
        }
      },
      "emissiveFactor": [
        0.0,
        0.0,
        0.0
      ],
      "alphaMode": "BLEND"
    },
    {
      "pbrMetallicRoughness": {
        "baseColorFactor": [
          1.0,
          1.0,
          1.0,
          1.0
        ],
        "roughnessFactor": 1.0,
        "metallicFactor": 0.0,
        "baseColorTexture": {
          "index": 4
        }
      },
      "emissiveFactor": [
        0.0,
        0.0,
        0.0
      ]
    },
    {
      "pbrMetallicRoughness": {
        "baseColorFactor": [
          1.0,
          1.0,
          1.0,
          1.0
        ],
        "roughnessFactor": 1.0,
        "metallicFactor": 0.0,
        "baseColorTexture": {
          "index": 5
        }
      },
      "emissiveFactor": [
        0.0,
        0.0,
        0.0
      ]
    },
    {
      "pbrMetallicRoughness": {
        "baseColorFactor": [
          1.0,
          1.0,
          1.0,
          1.0
        ],
        "roughnessFactor": 1.0,
        "metallicFactor": 0.0,
        "baseColorTexture": {
          "index": 6
        }
      },
      "emissiveFactor": [
        0.0,
        0.0,
        0.0
      ]
    },
    {
      "pbrMetallicRoughness": {
        "baseColorFactor": [
          1.0,
          1.0,
          1.0,
          1.0
        ],
        "roughnessFactor": 1.0,
        "metallicFactor": 0.0,
        "baseColorTexture": {
          "index": 7
        }
      },
      "emissiveFactor": [
        0.0,
        0.0,
        0.0
      ],
      "alphaMode": "BLEND"
    }
  ],
  "textures": [
    {
      "source": 0,
      "name": "asphalt_new"
    },
    {
      "source": 1,
      "name": "concrete_form_4x8"
    },
    {
      "source": 2,
      "name": "elnuevodorado_0"
    },
    {
      "source": 3,
      "name": "fencing_metal_straight"
    },
    {
      "source": 4,
      "name": "material_2"
    },
    {
      "source": 5,
      "name": "material_28"
    },
    {
      "source": 6,
      "name": "metal_rough"
    },
    {
      "source": 7,
      "name": "sostenedores"
    }
  ],
  "images": [
    {
      "uri": "asphalt_new.png"
    },
    {
      "uri": "concrete_form_4x8.png"
    },
    {
      "uri": "elnuevodorado_0.png"
    },
    {
      "uri": "fencing_metal_straight.png"
    },
    {
      "uri": "material_2.png"
    },
    {
      "uri": "material_28.png"
    },
    {
      "uri": "metal_rough.png"
    },
    {
      "uri": "sostenedores.png"
    }
  ],
  "bufferViews": [
    {
      "buffer": 0,
      "byteOffset": 0,
      "byteLength": 23016
    },
    {
      "buffer": 0,
      "byteOffset": 23016,
      "byteLength": 32256,
      "byteStride": 12
    },
    {
      "buffer": 0,
      "byteOffset": 55272,
      "byteLength": 32256,
      "byteStride": 12
    },
    {
      "buffer": 0,
      "byteOffset": 87528,
      "byteLength": 21504,
      "byteStride": 8
    }
  ],
  "buffers": [
    {
      "byteLength": 109032,
      "uri": "ElnuevoDorado.bin"
    }
  ]
}